solid AssimpScene
 facet normal 0.840168 0.485071 0.242536
  outer loop
  vertex -0.0517352 0.550083 0.04879
  vertex -0.0517352 -0.449917 2.04879
  vertex 0.81429 -0.949917 0.04879
  endloop
 endfacet

 facet normal -6.67705e-08 -0.970142 0.242536
  outer loop
  vertex 0.81429 -0.949917 0.04879
  vertex -0.0517352 -0.449917 2.04879
  vertex -0.917761 -0.949917 0.04879
  endloop
 endfacet

 facet normal -0.840168 0.485071 0.242536
  outer loop
  vertex -0.917761 -0.949917 0.04879
  vertex -0.0517352 -0.449917 2.04879
  vertex -0.0517352 0.550083 0.04879
  endloop
 endfacet

 facet normal -4.47733e-09 0 -1
  outer loop
  vertex -0.0517352 0.550083 0.04879
  vertex 0.81429 -0.949917 0.04879
  vertex -0.917761 -0.949917 0.04879
  endloop
 endfacet

endsolid AssimpScene
